<mxfile host="www.draw.io" modified="2020-01-07T08:35:17.857Z" agent="Mozilla/5.0 (Windows NT 6.1; Win64; x64) AppleWebKit/537.36 (KHTML, like Gecko) Chrome/78.0.3904.70 Safari/537.36" etag="RMWUW9WlcnZnDP8stOWi" version="12.4.9" type="github">
  <diagram id="L4YWGLXJ7ORCv00AcH7l" name="第 1 页">
    <mxGraphModel dx="1422" dy="755" grid="1" gridSize="10" guides="1" tooltips="1" connect="1" arrows="1" fold="1" page="1" pageScale="1" pageWidth="827" pageHeight="1169" math="0" shadow="0">
      <root>
        <mxCell id="0"/>
        <mxCell id="1" parent="0"/>
        <mxCell id="iuYcrRt3KC1bexPyI2uI-1" value="dc_profile.py&lt;br&gt;24401" style="whiteSpace=wrap;html=1;aspect=fixed;fillColor=#ffe6cc;strokeColor=#d79b00;" vertex="1" parent="1">
          <mxGeometry x="90" y="240" width="80" height="80" as="geometry"/>
        </mxCell>
      </root>
    </mxGraphModel>
  </diagram>
</mxfile>
